<?xml version="1.0" encoding="UTF-8"?>
<!DOCTYPE svg PUBLIC "-//W3C//DTD SVG 1.1//EN" "http://www.w3.org/Graphics/SVG/1.1/DTD/svg11.dtd">
<svg xmlns="http://www.w3.org/2000/svg" version="1.1" width="500px" height="500px" style="shape-rendering:geometricPrecision; text-rendering:geometricPrecision; image-rendering:optimizeQuality; fill-rule:evenodd; clip-rule:evenodd" xmlns:xlink="http://www.w3.org/1999/xlink">
<g><path style="opacity:1" fill="#b87e1a" d="M 33.5,49.5 C 176.167,49.5 318.833,49.5 461.5,49.5C 461.5,182.5 461.5,315.5 461.5,448.5C 460.5,316.001 460.167,183.334 460.5,50.5C 318.5,50.5 176.5,50.5 34.5,50.5C 34.8329,183.334 34.4996,316.001 33.5,448.5C 33.5,315.5 33.5,182.5 33.5,49.5 Z M 48.5,64.5 C 181.241,64.9926 313.741,64.9926 446,64.5C 447.039,65.2438 447.539,66.2438 447.5,67.5C 446.829,90.5689 446.162,113.736 445.5,137C 445.96,232.237 446.293,331.403 446.5,434.5C 313.833,434.5 181.167,434.5 48.5,434.5C 48.5,311.167 48.5,187.833 48.5,64.5 Z M 372.5,265.5 C 375.548,265.494 376.048,266.494 374,268.5C 371.842,267.95 371.342,266.95 372.5,265.5 Z M 369.5,268.5 C 370.289,268.783 370.956,269.283 371.5,270C 370.184,270.528 369.517,270.028 369.5,268.5 Z M 412.5,265.5 C 413.376,265.369 414.043,265.702 414.5,266.5C 412.852,272.388 411.852,278.388 411.5,284.5C 408.927,284.852 406.594,284.352 404.5,283C 406.002,279.995 407.002,276.829 407.5,273.5C 409.008,271.819 410.008,269.819 410.5,267.5C 411.5,267.167 412.167,266.5 412.5,265.5 Z M 176.5,269.5 C 177.087,270.767 177.087,271.767 176.5,272.5C 175.224,271.386 175.224,270.386 176.5,269.5 Z M 236.5,266.5 C 237.167,266.5 237.833,266.5 238.5,266.5C 238.637,270.179 237.971,273.679 236.5,277C 237.056,277.383 237.389,277.883 237.5,278.5C 236.539,280.265 236.205,282.265 236.5,284.5C 234.167,284.5 231.833,284.5 229.5,284.5C 230.167,281.5 230.833,278.5 231.5,275.5C 232.931,274.22 233.598,272.553 233.5,270.5C 234.488,269.205 235.488,267.872 236.5,266.5 Z M 197.5,267.5 C 202.648,276.208 200.314,281.875 190.5,284.5C 189.824,280.175 190.158,275.842 191.5,271.5C 191.338,269.159 190.338,267.325 188.5,266C 191.729,265.414 194.729,265.914 197.5,267.5 Z"/></g>
<g><path style="opacity:0.996" fill="#b1740a" d="M 461.5,448.5 C 461.5,448.833 461.5,449.167 461.5,449.5C 318.666,449.833 175.999,449.5 33.5,448.5C 34.4996,316.001 34.8329,183.334 34.5,50.5C 176.5,50.5 318.5,50.5 460.5,50.5C 460.167,183.334 460.5,316.001 461.5,448.5 Z M 48.5,64.5 C 181.241,64.9926 313.741,64.9926 446,64.5C 447.039,65.2438 447.539,66.2438 447.5,67.5C 446.829,90.5689 446.162,113.736 445.5,137C 445.96,232.237 446.293,331.403 446.5,434.5C 313.833,434.5 181.167,434.5 48.5,434.5C 48.5,311.167 48.5,187.833 48.5,64.5 Z M 372.5,265.5 C 371.342,266.95 371.842,267.95 374,268.5C 376.048,266.494 375.548,265.494 372.5,265.5 Z M 369.5,268.5 C 369.517,270.028 370.184,270.528 371.5,270C 370.956,269.283 370.289,268.783 369.5,268.5 Z M 412.5,265.5 C 413.376,265.369 414.043,265.702 414.5,266.5C 412.852,272.388 411.852,278.388 411.5,284.5C 408.927,284.852 406.594,284.352 404.5,283C 406.002,279.995 407.002,276.829 407.5,273.5C 409.008,271.819 410.008,269.819 410.5,267.5C 411.5,267.167 412.167,266.5 412.5,265.5 Z M 176.5,269.5 C 175.224,270.386 175.224,271.386 176.5,272.5C 177.087,271.767 177.087,270.767 176.5,269.5 Z M 236.5,266.5 C 237.167,266.5 237.833,266.5 238.5,266.5C 238.637,270.179 237.971,273.679 236.5,277C 237.056,277.383 237.389,277.883 237.5,278.5C 236.539,280.265 236.205,282.265 236.5,284.5C 234.167,284.5 231.833,284.5 229.5,284.5C 230.167,281.5 230.833,278.5 231.5,275.5C 232.931,274.22 233.598,272.553 233.5,270.5C 234.488,269.205 235.488,267.872 236.5,266.5 Z M 197.5,267.5 C 194.729,265.914 191.729,265.414 188.5,266C 190.338,267.325 191.338,269.159 191.5,271.5C 190.158,275.842 189.824,280.175 190.5,284.5C 200.314,281.875 202.648,276.208 197.5,267.5 Z"/></g>
<g><path style="opacity:0.128" fill="#e1caa0" d="M 447.5,435.5 C 447.5,435.167 447.5,434.833 447.5,434.5C 447.5,312.167 447.5,189.833 447.5,67.5C 447.539,66.2438 447.039,65.2438 446,64.5C 313.741,64.9926 181.241,64.9926 48.5,64.5C 47.5005,187.999 47.1671,311.666 47.5,435.5C 46.5005,311.668 46.1671,187.668 46.5,63.5C 180.5,63.5 314.5,63.5 448.5,63.5C 448.833,187.668 448.5,311.668 447.5,435.5 Z M 48.5,64.5 C 181.241,64.9926 313.741,64.9926 446,64.5C 447.039,65.2438 447.539,66.2438 447.5,67.5C 446.829,90.5689 446.162,113.736 445.5,137C 445.96,232.237 446.293,331.403 446.5,434.5C 313.833,434.5 181.167,434.5 48.5,434.5C 48.5,311.167 48.5,187.833 48.5,64.5 Z M 372.5,265.5 C 371.342,266.95 371.842,267.95 374,268.5C 376.048,266.494 375.548,265.494 372.5,265.5 Z M 369.5,268.5 C 369.517,270.028 370.184,270.528 371.5,270C 370.956,269.283 370.289,268.783 369.5,268.5 Z M 412.5,265.5 C 413.376,265.369 414.043,265.702 414.5,266.5C 412.852,272.388 411.852,278.388 411.5,284.5C 408.927,284.852 406.594,284.352 404.5,283C 406.002,279.995 407.002,276.829 407.5,273.5C 409.008,271.819 410.008,269.819 410.5,267.5C 411.5,267.167 412.167,266.5 412.5,265.5 Z M 176.5,269.5 C 175.224,270.386 175.224,271.386 176.5,272.5C 177.087,271.767 177.087,270.767 176.5,269.5 Z M 236.5,266.5 C 237.167,266.5 237.833,266.5 238.5,266.5C 238.637,270.179 237.971,273.679 236.5,277C 237.056,277.383 237.389,277.883 237.5,278.5C 236.539,280.265 236.205,282.265 236.5,284.5C 234.167,284.5 231.833,284.5 229.5,284.5C 230.167,281.5 230.833,278.5 231.5,275.5C 232.931,274.22 233.598,272.553 233.5,270.5C 234.488,269.205 235.488,267.872 236.5,266.5 Z M 197.5,267.5 C 194.729,265.914 191.729,265.414 188.5,266C 190.338,267.325 191.338,269.159 191.5,271.5C 190.158,275.842 189.824,280.175 190.5,284.5C 200.314,281.875 202.648,276.208 197.5,267.5 Z"/></g>
<g><path style="opacity:0.639" fill="#efdfc6" d="M 32.5,49.5 C 32.8333,49.5 33.1667,49.5 33.5,49.5C 33.5,182.5 33.5,315.5 33.5,448.5C 175.999,449.5 318.666,449.833 461.5,449.5C 461.833,449.5 462.167,449.5 462.5,449.5C 319.334,450.666 176.001,450.833 32.5,450C 31.6571,315.439 31.6571,181.939 32.5,49.5 Z"/></g>
<g><path style="opacity:0.996" fill="#b2760e" d="M 237.5,182.5 C 236.611,174.944 234.778,167.61 232,160.5C 231.009,157.36 229.176,155.026 226.5,153.5C 226.027,152.094 225.027,151.427 223.5,151.5C 222.737,150.732 221.737,150.232 220.5,150C 202.503,149.5 184.503,149.333 166.5,149.5C 165.167,199.5 165.167,249.5 166.5,299.5C 166.328,300.492 166.662,301.158 167.5,301.5C 168.488,304.076 169.488,306.743 170.5,309.5C 172.778,312.9 176.111,314.733 180.5,315C 187.158,315.5 193.825,315.666 200.5,315.5C 200.5,317.833 200.5,320.167 200.5,322.5C 169.167,322.5 137.833,322.5 106.5,322.5C 106.5,320.167 106.5,317.833 106.5,315.5C 113.888,315.747 121.221,315.247 128.5,314C 131.025,313.576 133.025,312.41 134.5,310.5C 134.5,309.833 134.833,309.5 135.5,309.5C 137.821,307.91 138.821,305.577 138.5,302.5C 138.5,302.167 138.5,301.833 138.5,301.5C 139.434,300.432 139.768,299.099 139.5,297.5C 140.499,248.336 140.832,199.003 140.5,149.5C 122.83,149.333 105.164,149.5 87.5,150C 85.9419,150.21 84.6085,150.71 83.5,151.5C 81.9731,151.427 80.9731,152.094 80.5,153.5C 78.4707,155.858 76.4707,158.192 74.5,160.5C 71.0722,166.613 69.4055,173.279 69.5,180.5C 69.5858,181.496 69.2524,182.329 68.5,183C 65.9615,183.796 63.6282,183.629 61.5,182.5C 63.386,166.193 65.0526,149.859 66.5,133.5C 70.5963,132.715 73.9296,133.882 76.5,137C 127.167,137.667 177.833,137.667 228.5,137C 231.537,134.152 235.204,132.985 239.5,133.5C 241.127,149.809 242.46,166.142 243.5,182.5C 241.5,182.5 239.5,182.5 237.5,182.5 Z"/></g>
<g><path style="opacity:0.266" fill="#eee0c9" d="M 237.5,182.5 C 239.5,182.5 241.5,182.5 243.5,182.5C 242.46,166.142 241.127,149.809 239.5,133.5C 235.204,132.985 231.537,134.152 228.5,137C 177.833,137.667 127.167,137.667 76.5,137C 73.9296,133.882 70.5963,132.715 66.5,133.5C 65.0526,149.859 63.386,166.193 61.5,182.5C 60.7109,182.217 60.0442,181.717 59.5,181C 60.1667,179.333 60.8333,177.667 61.5,176C 62.4752,161.685 63.8086,147.185 65.5,132.5C 68.1411,131.737 70.8078,131.57 73.5,132C 74.8782,133.713 76.5448,135.047 78.5,136C 128.167,136.667 177.833,136.667 227.5,136C 229.373,134.915 231.04,133.582 232.5,132C 234.833,131.333 237.167,131.333 239.5,132C 241.753,148.442 243.753,164.942 245.5,181.5C 244.009,183.012 242.176,184.012 240,184.5C 239.005,183.934 238.172,183.267 237.5,182.5 Z"/></g>
<g><path style="opacity:0.33" fill="#dbbc89" d="M 139.5,297.5 C 139.832,248.33 139.499,199.33 138.5,150.5C 120.058,151.275 101.724,151.608 83.5,151.5C 84.6085,150.71 85.9419,150.21 87.5,150C 105.164,149.5 122.83,149.333 140.5,149.5C 140.832,199.003 140.499,248.336 139.5,297.5 Z"/></g>
<g><path style="opacity:0.329" fill="#e0c599" d="M 166.5,150.5 C 166.5,150.167 166.5,149.833 166.5,149.5C 184.503,149.333 202.503,149.5 220.5,150C 221.737,150.232 222.737,150.732 223.5,151.5C 204.592,150.855 185.925,150.522 167.5,150.5C 167.167,150.5 166.833,150.5 166.5,150.5 Z"/></g>
<g><path style="opacity:0.008" fill="#f6ecdf" d="M 83.5,151.5 C 83.0269,152.906 82.0269,153.573 80.5,153.5C 80.9731,152.094 81.9731,151.427 83.5,151.5 Z"/></g>
<g><path style="opacity:0.369" fill="#e8d3b2" d="M 223.5,151.5 C 225.027,151.427 226.027,152.094 226.5,153.5C 224.973,153.573 223.973,152.906 223.5,151.5 Z"/></g>
<g><path style="opacity:0.314" fill="#ebd9bc" d="M 226.5,153.5 C 229.176,155.026 231.009,157.36 232,160.5C 234.778,167.61 236.611,174.944 237.5,182.5C 236.883,182.389 236.383,182.056 236,181.5C 234.908,171.389 231.741,162.055 226.5,153.5 Z"/></g>
<g><path style="opacity:0.302" fill="#e9d4b3" d="M 74.5,160.5 C 72.8168,167.276 71.1501,173.943 69.5,180.5C 69.4055,173.279 71.0722,166.613 74.5,160.5 Z"/></g>
<g><path style="opacity:0.139" fill="#f5ecde" d="M 166.5,150.5 C 166.833,150.5 167.167,150.5 167.5,150.5C 167.333,188.835 167.5,227.168 168,265.5C 168.816,264.177 169.983,263.511 171.5,263.5C 169.748,265.246 168.415,267.246 167.5,269.5C 166.501,230.004 166.168,190.337 166.5,150.5 Z"/></g>
<g><path style="opacity:0.088" fill="#fbf8f2" d="M 138.5,150.5 C 139.499,199.33 139.832,248.33 139.5,297.5C 139.768,299.099 139.434,300.432 138.5,301.5C 138.375,250.865 138.375,200.531 138.5,150.5 Z"/></g>
<g><path style="opacity:0.906" fill="#cea765" d="M 166.5,149.5 C 166.5,149.833 166.5,150.167 166.5,150.5C 166.168,190.337 166.501,230.004 167.5,269.5C 167.5,270.833 167.5,272.167 167.5,273.5C 166.507,281.984 166.174,290.651 166.5,299.5C 165.167,249.5 165.167,199.5 166.5,149.5 Z"/></g>
<g><path style="opacity:0.251" fill="#f3e9d8" d="M 248.5,261.5 C 244.192,260.35 239.859,260.35 235.5,261.5C 237.462,259.983 239.795,259.316 242.5,259.5C 244.167,259.667 245.833,259.833 247.5,260C 248.056,260.383 248.389,260.883 248.5,261.5 Z"/></g>
<g><path style="opacity:0.278" fill="#f0e4cf" d="M 322.5,261.5 C 316.812,260.122 311.145,260.288 305.5,262C 303.004,263.331 301.004,265.164 299.5,267.5C 298.539,269.265 298.205,271.265 298.5,273.5C 296.428,268.673 297.762,264.84 302.5,262C 308.631,259.656 314.964,258.989 321.5,260C 322.056,260.383 322.389,260.883 322.5,261.5 Z"/></g>
<g><path style="opacity:0.2" fill="#f3e8d7" d="M 352.5,260.5 C 348.131,260.467 343.798,260.8 339.5,261.5C 341.848,260.048 344.514,259.382 347.5,259.5C 349.369,259.507 351.036,259.84 352.5,260.5 Z"/></g>
<g><path style="opacity:0.273" fill="#edddc4" d="M 384.5,261.5 C 378.066,260.085 371.733,260.419 365.5,262.5C 368.851,260.107 372.684,259.107 377,259.5C 379.167,259.667 381.333,259.833 383.5,260C 384.056,260.383 384.389,260.883 384.5,261.5 Z"/></g>
<g><path style="opacity:0.224" fill="#efe0c9" d="M 180.5,260.5 C 188.617,258.822 196.617,259.656 204.5,263C 211.809,268.051 213.142,274.218 208.5,281.5C 211.194,269.328 206.194,262.495 193.5,261C 189.179,260.501 184.846,260.334 180.5,260.5 Z"/></g>
<g><path style="opacity:0.247" fill="#eedfc8" d="M 264.5,260.5 C 271.159,259.025 277.826,259.525 284.5,262C 285.942,262.377 286.942,263.21 287.5,264.5C 283.673,262.877 279.673,261.877 275.5,261.5C 272.038,260.518 268.371,260.185 264.5,260.5 Z"/></g>
<g><path style="opacity:0.392" fill="#f1e5d1" d="M 180.5,260.5 C 178.401,261.612 176.067,262.279 173.5,262.5C 175.438,260.837 177.772,260.171 180.5,260.5 Z"/></g>
<g><path style="opacity:0.996" fill="#b87e21" d="M 322.5,261.5 C 323.833,264.167 323.833,266.833 322.5,269.5C 320.106,276.518 318.773,283.851 318.5,291.5C 318.795,293.735 318.461,295.735 317.5,297.5C 316.527,299.948 316.194,302.615 316.5,305.5C 314.5,305.5 312.5,305.5 310.5,305.5C 309.061,304.012 308.395,302.178 308.5,300C 310.589,288.877 312.256,277.71 313.5,266.5C 314.043,266.44 314.376,266.107 314.5,265.5C 312.701,264.212 311.035,264.212 309.5,265.5C 307.05,265.874 306.05,267.374 306.5,270C 307.091,272.239 307.758,274.406 308.5,276.5C 306.167,277.833 303.833,277.833 301.5,276.5C 299.956,273.752 299.29,270.752 299.5,267.5C 301.004,265.164 303.004,263.331 305.5,262C 311.145,260.288 316.812,260.122 322.5,261.5 Z"/></g>
<g><path style="opacity:0.251" fill="#f2e6d3" d="M 422.5,260.5 C 415.78,259.739 410.114,261.739 405.5,266.5C 407.992,261.496 412.159,259.163 418,259.5C 419.707,259.508 421.207,259.842 422.5,260.5 Z"/></g>
<g><path style="opacity:0.819" fill="#e7d1af" d="M 32.5,49.5 C 175.999,48.5004 319.666,48.1671 463.5,48.5C 463.833,182.334 463.5,316.001 462.5,449.5C 462.167,449.5 461.833,449.5 461.5,449.5C 461.5,449.167 461.5,448.833 461.5,448.5C 461.5,315.5 461.5,182.5 461.5,49.5C 318.833,49.5 176.167,49.5 33.5,49.5C 33.1667,49.5 32.8333,49.5 32.5,49.5 Z"/></g>
<g><path style="opacity:0.58" fill="#eee0c8" d="M 260.5,261.5 C 259.486,262.674 258.153,263.34 256.5,263.5C 257.287,261.896 258.62,261.229 260.5,261.5 Z"/></g>
<g><path style="opacity:0.998" fill="#c69548" d="M 264.5,260.5 C 268.371,260.185 272.038,260.518 275.5,261.5C 271.297,261.076 267.297,261.576 263.5,263C 268.5,263.333 273.5,263.667 278.5,264C 280.426,264.422 281.426,265.589 281.5,267.5C 279.597,267.204 277.93,266.537 276.5,265.5C 272.689,264.355 268.689,264.188 264.5,265C 263.058,265.377 262.058,266.21 261.5,267.5C 261.167,267.5 260.833,267.5 260.5,267.5C 259.892,264.366 258.226,263.699 255.5,265.5C 255.833,264.833 256.167,264.167 256.5,263.5C 258.153,263.34 259.486,262.674 260.5,261.5C 261.568,260.566 262.901,260.232 264.5,260.5 Z"/></g>
<g><path style="opacity:0.047" fill="#f6eee0" d="M 309.5,265.5 C 311.035,264.212 312.701,264.212 314.5,265.5C 314.376,266.107 314.043,266.44 313.5,266.5C 312.432,265.566 311.099,265.232 309.5,265.5 Z"/></g>
<g><path style="opacity:0.069" fill="#f0e1cb" d="M 197.5,267.5 C 199.411,267.574 200.578,268.574 201,270.5C 202.987,281.561 198.487,286.227 187.5,284.5C 188.897,278.932 189.563,273.265 189.5,267.5C 187.167,267.5 184.833,267.5 182.5,267.5C 180.509,279.781 178.842,292.114 177.5,304.5C 176.842,303.207 176.508,301.707 176.5,300C 178.704,288.913 179.871,277.746 180,266.5C 179.005,267.066 178.172,267.733 177.5,268.5C 178.306,269.997 178.972,271.664 179.5,273.5C 179.185,275.483 178.185,276.816 176.5,277.5C 177.872,275.65 177.372,274.317 175,273.5C 173.835,269.316 175.335,266.483 179.5,265C 184.5,264.333 189.5,264.333 194.5,265C 195.942,265.377 196.942,266.21 197.5,267.5 Z M 176.5,269.5 C 175.224,270.386 175.224,271.386 176.5,272.5C 177.087,271.767 177.087,270.767 176.5,269.5 Z M 197.5,267.5 C 194.729,265.914 191.729,265.414 188.5,266C 190.338,267.325 191.338,269.159 191.5,271.5C 190.158,275.842 189.824,280.175 190.5,284.5C 200.314,281.875 202.648,276.208 197.5,267.5 Z"/></g>
<g><path style="opacity:0.997" fill="#b67a1a" d="M 260.5,267.5 C 259.957,268.742 259.623,270.075 259.5,271.5C 260.204,273.535 260.871,275.535 261.5,277.5C 258.43,277.632 255.43,277.299 252.5,276.5C 250.602,271.967 251.602,268.301 255.5,265.5C 258.226,263.699 259.892,264.366 260.5,267.5 Z"/></g>
<g><path style="opacity:0.251" fill="#f4e9d9" d="M 276.5,265.5 C 271.308,265.091 266.308,265.758 261.5,267.5C 262.058,266.21 263.058,265.377 264.5,265C 268.689,264.188 272.689,264.355 276.5,265.5 Z"/></g>
<g><path style="opacity:0.694" fill="#efe0c8" d="M 337.5,262.5 C 331.734,266.915 330.067,272.582 332.5,279.5C 331.883,279.389 331.383,279.056 331,278.5C 328.725,271.137 330.892,265.804 337.5,262.5 Z"/></g>
<g><path style="opacity:0.996" fill="#b67b1b" d="M 352.5,260.5 C 354.181,262.008 356.181,263.008 358.5,263.5C 359.082,264.931 359.915,266.264 361,267.5C 362.707,265.963 364.207,264.296 365.5,262.5C 371.733,260.419 378.066,260.085 384.5,261.5C 382.824,276.207 380.824,290.873 378.5,305.5C 376.5,305.5 374.5,305.5 372.5,305.5C 371.906,303.59 371.573,301.59 371.5,299.5C 373.039,287.807 374.706,276.14 376.5,264.5C 368.092,265.273 366.425,268.939 371.5,275.5C 371.5,276.167 371.167,276.5 370.5,276.5C 368.167,276.5 365.833,276.5 363.5,276.5C 362.833,276.5 362.5,276.167 362.5,275.5C 361.221,274.285 360.221,274.618 359.5,276.5C 359.5,277.167 359.167,277.5 358.5,277.5C 356.5,277.5 354.5,277.5 352.5,277.5C 353.151,275.174 353.818,272.841 354.5,270.5C 354.48,269.274 354.147,268.274 353.5,267.5C 353.167,266.5 352.5,265.833 351.5,265.5C 348.696,264.362 345.696,264.195 342.5,265C 341.944,265.383 341.611,265.883 341.5,266.5C 339.974,267.492 339.307,268.992 339.5,271C 339.307,273.008 339.974,274.508 341.5,275.5C 341.369,276.376 341.702,277.043 342.5,277.5C 347.535,280.012 352.201,283.012 356.5,286.5C 357.338,286.842 357.672,287.508 357.5,288.5C 357.81,292.7 357.143,296.7 355.5,300.5C 354.5,300.833 353.833,301.5 353.5,302.5C 352.486,303.674 351.153,304.34 349.5,304.5C 345.202,305.2 340.869,305.533 336.5,305.5C 331.469,304.13 328.469,300.796 327.5,295.5C 328.137,290.869 330.804,288.869 335.5,289.5C 335.5,290.833 335.5,292.167 335.5,293.5C 333.214,298.755 335.047,301.755 341,302.5C 343.675,302.343 345.841,301.343 347.5,299.5C 349.026,298.508 349.693,297.008 349.5,295C 349.876,292.345 348.876,290.512 346.5,289.5C 346.027,288.094 345.027,287.427 343.5,287.5C 342.508,287.672 341.842,287.338 341.5,286.5C 341.027,285.094 340.027,284.427 338.5,284.5C 338.027,283.094 337.027,282.427 335.5,282.5C 335.144,280.81 334.144,279.81 332.5,279.5C 330.067,272.582 331.734,266.915 337.5,262.5C 337.842,261.662 338.508,261.328 339.5,261.5C 343.798,260.8 348.131,260.467 352.5,260.5 Z M 372.5,265.5 C 371.342,266.95 371.842,267.95 374,268.5C 376.048,266.494 375.548,265.494 372.5,265.5 Z M 369.5,268.5 C 369.517,270.028 370.184,270.528 371.5,270C 370.956,269.283 370.289,268.783 369.5,268.5 Z"/></g>
<g><path style="opacity:0.139" fill="#f1e4cf" d="M 365.5,262.5 C 364.207,264.296 362.707,265.963 361,267.5C 359.915,266.264 359.082,264.931 358.5,263.5C 359.265,263.923 360.098,264.257 361,264.5C 362.406,263.586 363.906,262.92 365.5,262.5 Z"/></g>
<g><path style="opacity:0.447" fill="#efe0c9" d="M 352.5,260.5 C 355.089,260.461 357.089,261.461 358.5,263.5C 356.181,263.008 354.181,262.008 352.5,260.5 Z"/></g>
<g><path style="opacity:0.075" fill="#f1e4d0" d="M 351.5,265.5 C 348.098,265.342 344.764,265.676 341.5,266.5C 341.611,265.883 341.944,265.383 342.5,265C 345.696,264.195 348.696,264.362 351.5,265.5 Z"/></g>
<g><path style="opacity:0.392" fill="#f2e6d3" d="M 287.5,264.5 C 290.732,264.772 292.732,266.438 293.5,269.5C 291.46,267.823 289.46,266.156 287.5,264.5 Z"/></g>
<g><path style="opacity:0.004" fill="#f9f4ec" d="M 351.5,265.5 C 352.5,265.833 353.167,266.5 353.5,267.5C 352.167,267.5 351.5,266.833 351.5,265.5 Z"/></g>
<g><path style="opacity:0.053" fill="#f6eee1" d="M 372.5,305.5 C 370.11,305.315 369.11,303.982 369.5,301.5C 370.53,293.659 371.863,285.659 373.5,277.5C 373.145,276.478 372.478,275.811 371.5,275.5C 366.425,268.939 368.092,265.273 376.5,264.5C 374.706,276.14 373.039,287.807 371.5,299.5C 371.573,301.59 371.906,303.59 372.5,305.5 Z M 372.5,265.5 C 371.342,266.95 371.842,267.95 374,268.5C 376.048,266.494 375.548,265.494 372.5,265.5 Z M 369.5,268.5 C 369.517,270.028 370.184,270.528 371.5,270C 370.956,269.283 370.289,268.783 369.5,268.5 Z"/></g>
<g><path style="opacity:0.373" fill="#ecdbc0" d="M 281.5,267.5 C 283.027,267.427 284.027,268.094 284.5,269.5C 282.973,269.573 281.973,268.906 281.5,267.5 Z"/></g>
<g><path style="opacity:0.149" fill="#f3e8d7" d="M 405.5,266.5 C 405.34,268.153 404.674,269.486 403.5,270.5C 403.229,268.62 403.896,267.287 405.5,266.5 Z"/></g>
<g><path style="opacity:0.133" fill="#f2e5d2" d="M 256.5,263.5 C 256.167,264.167 255.833,264.833 255.5,265.5C 251.602,268.301 250.602,271.967 252.5,276.5C 251.883,276.389 251.383,276.056 251,275.5C 249.37,269.766 251.204,265.766 256.5,263.5 Z"/></g>
<g><path style="opacity:0.92" fill="#d3ab6d" d="M 299.5,267.5 C 299.29,270.752 299.956,273.752 301.5,276.5C 299.5,276.5 298.5,275.5 298.5,273.5C 298.205,271.265 298.539,269.265 299.5,267.5 Z"/></g>
<g><path style="opacity:0.996" fill="#b67b1b" d="M 275.5,261.5 C 279.673,261.877 283.673,262.877 287.5,264.5C 289.46,266.156 291.46,267.823 293.5,269.5C 294.11,271.434 295.11,273.101 296.5,274.5C 297.404,275.209 297.737,276.209 297.5,277.5C 298.033,284.561 296.699,291.227 293.5,297.5C 291.5,298.833 289.833,300.5 288.5,302.5C 288.158,303.338 287.492,303.672 286.5,303.5C 281.28,304.969 275.946,305.636 270.5,305.5C 266.321,306.226 262.321,306.226 258.5,305.5C 255.346,300.178 257.013,297.845 263.5,298.5C 264.114,294.865 264.448,291.198 264.5,287.5C 264.5,287.167 264.5,286.833 264.5,286.5C 265.863,282.368 266.863,278.035 267.5,273.5C 268.451,272.081 268.784,270.415 268.5,268.5C 270.167,268.5 271.833,268.5 273.5,268.5C 274.117,268.611 274.617,268.944 275,269.5C 275.497,272.146 275.664,274.813 275.5,277.5C 273.585,283.217 272.585,289.217 272.5,295.5C 271.694,296.997 271.028,298.664 270.5,300.5C 273.446,301.655 276.446,301.821 279.5,301C 280.056,300.617 280.389,300.117 280.5,299.5C 284.379,297.794 286.879,294.794 288,290.5C 288.667,285.167 288.667,279.833 288,274.5C 287.303,272.416 286.136,270.749 284.5,269.5C 284.027,268.094 283.027,267.427 281.5,267.5C 281.426,265.589 280.426,264.422 278.5,264C 273.5,263.667 268.5,263.333 263.5,263C 267.297,261.576 271.297,261.076 275.5,261.5 Z"/></g>
<g><path style="opacity:0.102" fill="#f2e5d1" d="M 309.5,265.5 C 308.058,266.82 307.392,268.486 307.5,270.5C 308.5,270.5 309.5,270.5 310.5,270.5C 310.946,273.01 310.28,275.01 308.5,276.5C 307.758,274.406 307.091,272.239 306.5,270C 306.05,267.374 307.05,265.874 309.5,265.5 Z"/></g>
<g><path style="opacity:0.435" fill="#eedfc7" d="M 293.5,269.5 C 295.727,270.401 296.727,272.067 296.5,274.5C 295.11,273.101 294.11,271.434 293.5,269.5 Z"/></g>
<g><path style="opacity:0.086" fill="#f4e9d8" d="M 260.5,267.5 C 260.833,267.5 261.167,267.5 261.5,267.5C 260.962,269.117 260.629,270.784 260.5,272.5C 261.5,272.5 262.5,272.5 263.5,272.5C 263.88,274.698 263.213,276.365 261.5,277.5C 260.871,275.535 260.204,273.535 259.5,271.5C 259.623,270.075 259.957,268.742 260.5,267.5 Z"/></g>
<g><path style="opacity:0.349" fill="#f0e3cd" d="M 341.5,266.5 C 340.167,269.5 340.167,272.5 341.5,275.5C 339.974,274.508 339.307,273.008 339.5,271C 339.307,268.992 339.974,267.492 341.5,266.5 Z"/></g>
<g><path style="opacity:0.486" fill="#eee0c7" d="M 353.5,267.5 C 354.147,268.274 354.48,269.274 354.5,270.5C 353.818,272.841 353.151,275.174 352.5,277.5C 350.442,276.067 350.608,274.401 353,272.5C 353.494,270.866 353.66,269.199 353.5,267.5 Z"/></g>
<g><path style="opacity:0.02" fill="#f2e6d3" d="M 362.5,275.5 C 361.609,276.11 360.609,276.443 359.5,276.5C 360.221,274.618 361.221,274.285 362.5,275.5 Z"/></g>
<g><path style="opacity:0.328" fill="#ead7b8" d="M 363.5,276.5 C 365.833,276.5 368.167,276.5 370.5,276.5C 368.373,278.426 366.04,278.426 363.5,276.5 Z"/></g>
<g><path style="opacity:0.14" fill="#f3e8d8" d="M 167.5,273.5 C 167.833,274.833 168.167,276.167 168.5,277.5C 167.508,285.316 167.174,293.316 167.5,301.5C 166.662,301.158 166.328,300.492 166.5,299.5C 166.174,290.651 166.507,281.984 167.5,273.5 Z"/></g>
<g><path style="opacity:0.482" fill="#e0c597" d="M 252.5,276.5 C 255.43,277.299 258.43,277.632 261.5,277.5C 259.034,278.634 256.367,278.801 253.5,278C 252.944,277.617 252.611,277.117 252.5,276.5 Z"/></g>
<g><path style="opacity:0.149" fill="#f2e7d5" d="M 352.5,277.5 C 354.5,277.5 356.5,277.5 358.5,277.5C 356.358,279.731 354.358,279.731 352.5,277.5 Z"/></g>
<g><path style="opacity:0.12" fill="#fefdfc" d="M 447.5,67.5 C 447.5,189.833 447.5,312.167 447.5,434.5C 447.167,434.5 446.833,434.5 446.5,434.5C 446.293,331.403 445.96,232.237 445.5,137C 446.162,113.736 446.829,90.5689 447.5,67.5 Z"/></g>
<g><path style="opacity:0.416" fill="#ead6b8" d="M 248.5,261.5 C 249.156,262.622 249.489,263.955 249.5,265.5C 247.701,276.492 246.034,287.492 244.5,298.5C 247.278,298.978 249.278,297.978 250.5,295.5C 251.689,294.571 253.022,294.238 254.5,294.5C 255.092,297.631 254.092,299.964 251.5,301.5C 251.92,299.906 252.586,298.406 253.5,297C 253.167,296.5 252.833,296 252.5,295.5C 250.589,299.21 247.756,300.544 244,299.5C 243.833,298 243.667,296.5 243.5,295C 245.223,283.831 246.889,272.665 248.5,261.5 Z"/></g>
<g><path style="opacity:0.286" fill="#f2e6d2" d="M 313.5,266.5 C 312.256,277.71 310.589,288.877 308.5,300C 308.395,302.178 309.061,304.012 310.5,305.5C 309.504,305.586 308.671,305.252 308,304.5C 307.691,303.234 307.191,302.067 306.5,301C 308.61,289.357 310.943,277.857 313.5,266.5 Z"/></g>
<g><path style="opacity:0.369" fill="#e7d0ad" d="M 322.5,269.5 C 321.795,277.073 320.462,284.407 318.5,291.5C 318.773,283.851 320.106,276.518 322.5,269.5 Z"/></g>
<g><path style="opacity:0.337" fill="#e0c396" d="M 332.5,279.5 C 334.144,279.81 335.144,280.81 335.5,282.5C 333.856,282.19 332.856,281.19 332.5,279.5 Z"/></g>
<g><path style="opacity:0.337" fill="#e1c69b" d="M 335.5,282.5 C 337.027,282.427 338.027,283.094 338.5,284.5C 336.973,284.573 335.973,283.906 335.5,282.5 Z"/></g>
<g><path style="opacity:0.486" fill="#f1e4ce" d="M 341.5,275.5 C 346.133,277.483 350.466,279.983 354.5,283C 355.823,283.816 356.489,284.983 356.5,286.5C 352.201,283.012 347.535,280.012 342.5,277.5C 341.702,277.043 341.369,276.376 341.5,275.5 Z"/></g>
<g><path style="opacity:0.1" fill="#f1e4d0" d="M 403.5,270.5 C 402.365,275.236 401.032,279.903 399.5,284.5C 394.661,283.677 392.327,285.677 392.5,290.5C 390.19,288.855 390.023,286.855 392,284.5C 394,283.833 396,283.167 398,282.5C 399.759,278.356 401.592,274.356 403.5,270.5 Z"/></g>
<g><path style="opacity:0.188" fill="#f3e9d8" d="M 275.5,277.5 C 275.664,274.813 275.497,272.146 275,269.5C 274.617,268.944 274.117,268.611 273.5,268.5C 271.735,267.539 269.735,267.205 267.5,267.5C 267.5,269.5 267.5,271.5 267.5,273.5C 266.863,278.035 265.863,282.368 264.5,286.5C 265.567,279.726 266.234,273.393 266.5,267.5C 275.824,265.157 278.824,268.491 275.5,277.5 Z"/></g>
<g><path style="opacity:0.949" fill="#cfa865" d="M 273.5,268.5 C 271.833,268.5 270.167,268.5 268.5,268.5C 268.784,270.415 268.451,272.081 267.5,273.5C 267.5,271.5 267.5,269.5 267.5,267.5C 269.735,267.205 271.735,267.539 273.5,268.5 Z"/></g>
<g><path style="opacity:0.302" fill="#ebd7b9" d="M 275.5,277.5 C 275.128,283.732 274.128,289.732 272.5,295.5C 272.585,289.217 273.585,283.217 275.5,277.5 Z"/></g>
<g><path style="opacity:0.151" fill="#f1e4d0" d="M 297.5,277.5 C 298.643,280.976 298.81,284.642 298,288.5C 297.528,292.11 296.028,295.11 293.5,297.5C 296.699,291.227 298.033,284.561 297.5,277.5 Z"/></g>
<g><path style="opacity:0.996" fill="#b77d1e" d="M 422.5,260.5 C 422.971,262.288 423.304,264.122 423.5,266C 420.961,277.063 419.461,288.23 419,299.5C 420.388,300.554 421.888,300.72 423.5,300C 425.019,298.649 426.352,297.149 427.5,295.5C 428.568,297.187 428.401,298.854 427,300.5C 425.035,302.55 422.868,304.217 420.5,305.5C 418.611,306.742 416.611,306.742 414.5,305.5C 413.075,304.078 412.075,302.411 411.5,300.5C 411.5,296.5 411.5,292.5 411.5,288.5C 407.958,288.187 404.625,288.521 401.5,289.5C 400.566,290.568 400.232,291.901 400.5,293.5C 398.341,296.484 396.675,299.817 395.5,303.5C 395.5,304.167 395.167,304.5 394.5,304.5C 391.833,304.5 389.167,304.5 386.5,304.5C 386.5,302.5 386.5,300.5 386.5,298.5C 389.631,299.092 391.964,298.092 393.5,295.5C 395.529,293.979 396.362,291.979 396,289.5C 394.989,290.337 393.822,290.67 392.5,290.5C 392.327,285.677 394.661,283.677 399.5,284.5C 401.032,279.903 402.365,275.236 403.5,270.5C 404.674,269.486 405.34,268.153 405.5,266.5C 410.114,261.739 415.78,259.739 422.5,260.5 Z M 412.5,265.5 C 413.376,265.369 414.043,265.702 414.5,266.5C 412.852,272.388 411.852,278.388 411.5,284.5C 408.927,284.852 406.594,284.352 404.5,283C 406.002,279.995 407.002,276.829 407.5,273.5C 409.008,271.819 410.008,269.819 410.5,267.5C 411.5,267.167 412.167,266.5 412.5,265.5 Z"/></g>
<g><path style="opacity:0.824" fill="#ecdbc0" d="M 412.5,265.5 C 413.209,264.596 414.209,264.263 415.5,264.5C 414.745,271.537 413.745,278.537 412.5,285.5C 409.5,285.5 406.5,285.5 403.5,285.5C 403.861,281.085 405.194,277.085 407.5,273.5C 407.002,276.829 406.002,279.995 404.5,283C 406.594,284.352 408.927,284.852 411.5,284.5C 411.852,278.388 412.852,272.388 414.5,266.5C 414.043,265.702 413.376,265.369 412.5,265.5 Z"/></g>
<g><path style="opacity:0.169" fill="#f0e1ca" d="M 410.5,267.5 C 410.008,269.819 409.008,271.819 407.5,273.5C 407.461,270.911 408.461,268.911 410.5,267.5 Z"/></g>
<g><path style="opacity:0.255" fill="#f2e5d2" d="M 284.5,269.5 C 286.136,270.749 287.303,272.416 288,274.5C 288.667,279.833 288.667,285.167 288,290.5C 286.879,294.794 284.379,297.794 280.5,299.5C 287.336,292.596 289.503,284.596 287,275.5C 286.426,273.508 285.259,272.008 283.5,271C 284.056,270.617 284.389,270.117 284.5,269.5 Z"/></g>
<g><path style="opacity:0.208" fill="#e7d2af" d="M 338.5,284.5 C 340.027,284.427 341.027,285.094 341.5,286.5C 339.973,286.573 338.973,285.906 338.5,284.5 Z"/></g>
<g><path style="opacity:0.361" fill="#ebd9bc" d="M 384.5,261.5 C 385.525,262.374 386.192,263.541 386.5,265C 383.785,278.741 381.785,292.574 380.5,306.5C 377.615,306.806 374.948,306.473 372.5,305.5C 374.5,305.5 376.5,305.5 378.5,305.5C 380.824,290.873 382.824,276.207 384.5,261.5 Z"/></g>
<g><path style="opacity:0.259" fill="#ead6b7" d="M 343.5,287.5 C 345.027,287.427 346.027,288.094 346.5,289.5C 344.973,289.573 343.973,288.906 343.5,287.5 Z"/></g>
<g><path style="opacity:0.812" fill="#cfa865" d="M 401.5,289.5 C 404.625,288.521 407.958,288.187 411.5,288.5C 411.5,292.5 411.5,296.5 411.5,300.5C 410.527,298.052 410.194,295.385 410.5,292.5C 410.5,291.833 410.5,291.167 410.5,290.5C 407.713,289.523 404.713,289.19 401.5,289.5 Z"/></g>
<g><path style="opacity:0.11" fill="#f5eddf" d="M 401.5,289.5 C 404.713,289.19 407.713,289.523 410.5,290.5C 407.5,290.5 404.5,290.5 401.5,290.5C 401.737,291.791 401.404,292.791 400.5,293.5C 400.232,291.901 400.566,290.568 401.5,289.5 Z"/></g>
<g><path style="opacity:0.471" fill="#ead6b7" d="M 194.5,293.5 C 193.044,290.685 190.877,289.685 188,290.5C 186.905,295.78 186.405,301.113 186.5,306.5C 183.813,306.664 181.146,306.497 178.5,306C 177.944,305.617 177.611,305.117 177.5,304.5C 180.096,305.265 182.763,305.599 185.5,305.5C 185.309,300.101 185.809,294.767 187,289.5C 191.408,287.404 193.908,288.738 194.5,293.5 Z"/></g>
<g><path style="opacity:0.302" fill="#ecdbbf" d="M 357.5,288.5 C 358.638,291.304 358.805,294.304 358,297.5C 357.623,298.942 356.79,299.942 355.5,300.5C 357.143,296.7 357.81,292.7 357.5,288.5 Z"/></g>
<g><path style="opacity:0.086" fill="#f5eddf" d="M 393.5,295.5 C 393.33,294.178 393.663,293.011 394.5,292C 393.584,291.722 392.918,291.222 392.5,290.5C 393.822,290.67 394.989,290.337 396,289.5C 396.362,291.979 395.529,293.979 393.5,295.5 Z"/></g>
<g><path style="opacity:0.055" fill="#f7f0e5" d="M 346.5,289.5 C 348.876,290.512 349.876,292.345 349.5,295C 349.693,297.008 349.026,298.508 347.5,299.5C 348.985,295.944 348.652,292.611 346.5,289.5 Z"/></g>
<g><path style="opacity:0.095" fill="#f0e1cb" d="M 422.5,260.5 C 423.117,260.611 423.617,260.944 424,261.5C 424.167,263.167 424.333,264.833 424.5,266.5C 422.838,276.805 421.504,287.138 420.5,297.5C 423.356,296.172 426.356,295.172 429.5,294.5C 429.776,300.888 426.776,304.555 420.5,305.5C 422.868,304.217 425.035,302.55 427,300.5C 428.401,298.854 428.568,297.187 427.5,295.5C 426.352,297.149 425.019,298.649 423.5,300C 421.888,300.72 420.388,300.554 419,299.5C 419.461,288.23 420.961,277.063 423.5,266C 423.304,264.122 422.971,262.288 422.5,260.5 Z"/></g>
<g><path style="opacity:0.997" fill="#b77d1f" d="M 180.5,260.5 C 184.846,260.334 189.179,260.501 193.5,261C 206.194,262.495 211.194,269.328 208.5,281.5C 208.5,282.167 208.167,282.5 207.5,282.5C 205.973,282.427 204.973,283.094 204.5,284.5C 204.158,285.338 203.492,285.672 202.5,285.5C 196.676,286.162 196.342,287.162 201.5,288.5C 202.338,288.842 202.672,289.508 202.5,290.5C 202.796,292.403 203.463,294.07 204.5,295.5C 204.982,300.382 206.982,301.382 210.5,298.5C 210.5,297.833 210.833,297.5 211.5,297.5C 212.458,297.047 213.292,296.381 214,295.5C 215.221,299.127 216.888,299.127 219,295.5C 219.833,293.833 220.667,292.167 221.5,290.5C 219.997,289.948 218.331,289.948 216.5,290.5C 216.5,289.5 216.5,288.5 216.5,287.5C 218.347,284.829 221.014,283.829 224.5,284.5C 225.5,280.5 226.5,276.5 227.5,272.5C 228.931,271.22 229.598,269.553 229.5,267.5C 231.833,265.833 233.833,263.833 235.5,261.5C 239.859,260.35 244.192,260.35 248.5,261.5C 246.889,272.665 245.223,283.831 243.5,295C 243.667,296.5 243.833,298 244,299.5C 247.756,300.544 250.589,299.21 252.5,295.5C 252.833,296 253.167,296.5 253.5,297C 252.586,298.406 251.92,299.906 251.5,301.5C 251.167,302.5 250.5,303.167 249.5,303.5C 247.847,303.66 246.514,304.326 245.5,305.5C 243.5,306.833 241.5,306.833 239.5,305.5C 235.849,300.889 234.516,295.556 235.5,289.5C 231.671,288.931 228.337,289.598 225.5,291.5C 223.509,295.79 221.509,300.124 219.5,304.5C 217.345,306.534 215.012,306.867 212.5,305.5C 210.952,303.078 209.286,303.078 207.5,305.5C 201.652,305.658 197.652,302.991 195.5,297.5C 194.566,296.432 194.232,295.099 194.5,293.5C 193.908,288.738 191.408,287.404 187,289.5C 185.809,294.767 185.309,300.101 185.5,305.5C 182.763,305.599 180.096,305.265 177.5,304.5C 178.842,292.114 180.509,279.781 182.5,267.5C 184.833,267.5 187.167,267.5 189.5,267.5C 189.563,273.265 188.897,278.932 187.5,284.5C 198.487,286.227 202.987,281.561 201,270.5C 200.578,268.574 199.411,267.574 197.5,267.5C 196.942,266.21 195.942,265.377 194.5,265C 189.5,264.333 184.5,264.333 179.5,265C 175.335,266.483 173.835,269.316 175,273.5C 177.372,274.317 177.872,275.65 176.5,277.5C 173.833,278.833 171.167,278.833 168.5,277.5C 168.167,276.167 167.833,274.833 167.5,273.5C 167.5,272.167 167.5,270.833 167.5,269.5C 168.415,267.246 169.748,265.246 171.5,263.5C 171.842,262.662 172.508,262.328 173.5,262.5C 176.067,262.279 178.401,261.612 180.5,260.5 Z M 176.5,269.5 C 175.224,270.386 175.224,271.386 176.5,272.5C 177.087,271.767 177.087,270.767 176.5,269.5 Z M 236.5,266.5 C 237.167,266.5 237.833,266.5 238.5,266.5C 238.637,270.179 237.971,273.679 236.5,277C 237.056,277.383 237.389,277.883 237.5,278.5C 236.539,280.265 236.205,282.265 236.5,284.5C 234.167,284.5 231.833,284.5 229.5,284.5C 230.167,281.5 230.833,278.5 231.5,275.5C 232.931,274.22 233.598,272.553 233.5,270.5C 234.488,269.205 235.488,267.872 236.5,266.5 Z M 197.5,267.5 C 194.729,265.914 191.729,265.414 188.5,266C 190.338,267.325 191.338,269.159 191.5,271.5C 190.158,275.842 189.824,280.175 190.5,284.5C 200.314,281.875 202.648,276.208 197.5,267.5 Z"/></g>
<g><path style="opacity:0.216" fill="#eedec6" d="M 239.5,305.5 C 237.248,305.084 235.748,303.751 235,301.5C 233.906,297.718 233.74,294.051 234.5,290.5C 231.455,291.344 228.455,291.677 225.5,291.5C 228.337,289.598 231.671,288.931 235.5,289.5C 234.516,295.556 235.849,300.889 239.5,305.5 Z"/></g>
<g><path style="opacity:0.09" fill="#f1e5d0" d="M 202.5,290.5 C 204.213,291.635 204.88,293.302 204.5,295.5C 203.463,294.07 202.796,292.403 202.5,290.5 Z"/></g>
<g><path style="opacity:0.086" fill="#f1e3cd" d="M 211.5,297.5 C 211.414,296.504 211.748,295.671 212.5,295C 214.521,294.86 216.355,294.693 218,294.5C 218.374,293.584 218.874,292.75 219.5,292C 218.263,291.768 217.263,291.268 216.5,290.5C 218.331,289.948 219.997,289.948 221.5,290.5C 220.667,292.167 219.833,293.833 219,295.5C 216.888,299.127 215.221,299.127 214,295.5C 213.292,296.381 212.458,297.047 211.5,297.5 Z"/></g>
<g><path style="opacity:0.022" fill="#f0e0c9" d="M 202.5,285.5 C 201.89,286.391 201.557,287.391 201.5,288.5C 196.342,287.162 196.676,286.162 202.5,285.5 Z"/></g>
<g><path style="opacity:0.247" fill="#ebdbbf" d="M 231.5,275.5 C 230.833,278.5 230.167,281.5 229.5,284.5C 231.833,284.5 234.167,284.5 236.5,284.5C 236.205,282.265 236.539,280.265 237.5,278.5C 237.5,280.833 237.5,283.167 237.5,285.5C 234.102,285.82 230.768,285.487 227.5,284.5C 228.469,281.231 229.802,278.231 231.5,275.5 Z"/></g>
<g><path style="opacity:0.02" fill="#f5ecdd" d="M 207.5,282.5 C 207.027,283.906 206.027,284.573 204.5,284.5C 204.973,283.094 205.973,282.427 207.5,282.5 Z"/></g>
<g><path style="opacity:0.663" fill="#f0e2cc" d="M 227.5,272.5 C 226.5,276.5 225.5,280.5 224.5,284.5C 221.014,283.829 218.347,284.829 216.5,287.5C 216.062,287.565 215.728,287.399 215.5,287C 217.164,283.864 219.831,282.697 223.5,283.5C 223.777,279.356 225.11,275.689 227.5,272.5 Z"/></g>
<g><path style="opacity:0.224" fill="#eeddc4" d="M 233.5,270.5 C 233.598,272.553 232.931,274.22 231.5,275.5C 231.402,273.447 232.069,271.78 233.5,270.5 Z"/></g>
<g><path style="opacity:0.169" fill="#f5ecde" d="M 229.5,267.5 C 229.598,269.553 228.931,271.22 227.5,272.5C 226.955,270.601 227.622,268.934 229.5,267.5 Z"/></g>
<g><path style="opacity:0.224" fill="#f3e8d6" d="M 238.5,266.5 C 238.833,266.5 239.167,266.5 239.5,266.5C 239.656,270.764 238.989,274.764 237.5,278.5C 237.389,277.883 237.056,277.383 236.5,277C 237.971,273.679 238.637,270.179 238.5,266.5 Z"/></g>
<g><path style="opacity:0.008" fill="#f6eee2" d="M 239.5,266.5 C 239.167,265.167 238.833,265.167 238.5,266.5C 237.833,266.5 237.167,266.5 236.5,266.5C 237.427,264.524 238.76,264.191 240.5,265.5C 240.376,266.107 240.043,266.44 239.5,266.5 Z"/></g>
<g><path style="opacity:0.592" fill="#eedfc7" d="M 235.5,261.5 C 233.833,263.833 231.833,265.833 229.5,267.5C 230.5,264.5 232.5,262.5 235.5,261.5 Z"/></g>
<g><path style="opacity:0.278" fill="#f3e8d7" d="M 410.5,292.5 C 410.194,295.385 410.527,298.052 411.5,300.5C 412.075,302.411 413.075,304.078 414.5,305.5C 411.95,305.439 410.45,304.106 410,301.5C 409.195,298.304 409.362,295.304 410.5,292.5 Z"/></g>
<g><path style="opacity:0.059" fill="#f0e3ce" d="M 204.5,295.5 C 205.642,297.972 207.642,298.972 210.5,298.5C 206.982,301.382 204.982,300.382 204.5,295.5 Z"/></g>
<g><path style="opacity:0.086" fill="#f0e1cb" d="M 272.5,295.5 C 272.5,297.167 272.5,298.833 272.5,300.5C 275.206,300.425 277.873,300.092 280.5,299.5C 280.389,300.117 280.056,300.617 279.5,301C 276.446,301.821 273.446,301.655 270.5,300.5C 271.028,298.664 271.694,296.997 272.5,295.5 Z"/></g>
<g><path style="opacity:0.325" fill="#ebd9bc" d="M 400.5,293.5 C 399.873,297.42 398.207,300.753 395.5,303.5C 396.675,299.817 398.341,296.484 400.5,293.5 Z"/></g>
<g><path style="opacity:0.345" fill="#f1e5d1" d="M 335.5,293.5 C 335.5,292.167 335.5,290.833 335.5,289.5C 330.804,288.869 328.137,290.869 327.5,295.5C 328.469,300.796 331.469,304.13 336.5,305.5C 328.179,304.56 325.012,299.893 327,291.5C 329.897,288.769 333.397,287.769 337.5,288.5C 337.88,290.698 337.213,292.365 335.5,293.5 Z"/></g>
<g><path style="opacity:0.506" fill="#eeddc3" d="M 393.5,295.5 C 391.964,298.092 389.631,299.092 386.5,298.5C 386.5,300.5 386.5,302.5 386.5,304.5C 384.424,302.33 384.257,299.997 386,297.5C 388.436,296.645 390.936,295.979 393.5,295.5 Z"/></g>
<g><path style="opacity:0.243" fill="#ecdbbf" d="M 195.5,297.5 C 197.652,302.991 201.652,305.658 207.5,305.5C 200.75,307.468 196.75,304.801 195.5,297.5 Z"/></g>
<g><path style="opacity:0.216" fill="#f1e3ce" d="M 264.5,287.5 C 264.448,291.198 264.114,294.865 263.5,298.5C 257.013,297.845 255.346,300.178 258.5,305.5C 255.665,304.863 254.332,303.363 254.5,301C 256.328,298.058 258.995,296.891 262.5,297.5C 262.753,293.96 263.419,290.627 264.5,287.5 Z"/></g>
<g><path style="opacity:0.095" fill="#efe0c9" d="M 335.5,293.5 C 335.104,296.044 335.771,298.211 337.5,300C 340.888,300.659 344.221,300.492 347.5,299.5C 345.841,301.343 343.675,302.343 341,302.5C 335.047,301.755 333.214,298.755 335.5,293.5 Z"/></g>
<g><path style="opacity:0.008" fill="#f8f1e6" d="M 293.5,297.5 C 292.833,300.167 291.167,301.833 288.5,302.5C 289.833,300.5 291.5,298.833 293.5,297.5 Z"/></g>
<g><path style="opacity:0.008" fill="#f8f2e8" d="M 355.5,300.5 C 355.5,301.833 354.833,302.5 353.5,302.5C 353.833,301.5 354.5,300.833 355.5,300.5 Z"/></g>
<g><path style="opacity:0.043" fill="#f1e3ce" d="M 225.5,291.5 C 225.263,294.647 224.43,297.647 223,300.5C 222.34,302.324 221.173,303.657 219.5,304.5C 221.509,300.124 223.509,295.79 225.5,291.5 Z"/></g>
<g><path style="opacity:0.006" fill="#f7f1e6" d="M 212.5,305.5 C 210.833,305.5 209.167,305.5 207.5,305.5C 209.286,303.078 210.952,303.078 212.5,305.5 Z"/></g>
<g><path style="opacity:0.2" fill="#eee0c8" d="M 249.5,303.5 C 248.713,305.104 247.38,305.771 245.5,305.5C 246.514,304.326 247.847,303.66 249.5,303.5 Z"/></g>
<g><path style="opacity:0.808" fill="#dab681" d="M 386.5,304.5 C 389.167,304.5 391.833,304.5 394.5,304.5C 391.833,307.167 389.167,307.167 386.5,304.5 Z"/></g>
<g><path style="opacity:0.149" fill="#f0e2ca" d="M 286.5,303.5 C 283.233,305.202 279.733,306.536 276,307.5C 274.052,306.891 272.218,306.224 270.5,305.5C 275.946,305.636 281.28,304.969 286.5,303.5 Z"/></g>
<g><path style="opacity:0.122" fill="#edddc2" d="M 317.5,297.5 C 317.5,300.5 317.5,303.5 317.5,306.5C 314.941,306.802 312.607,306.468 310.5,305.5C 312.5,305.5 314.5,305.5 316.5,305.5C 316.194,302.615 316.527,299.948 317.5,297.5 Z"/></g>
<g><path style="opacity:0.173" fill="#efe1c9" d="M 349.5,304.5 C 348.992,306.233 348.159,306.566 347,305.5C 345.667,306.167 344.333,306.833 343,307.5C 340.927,307.262 338.76,306.596 336.5,305.5C 340.869,305.533 345.202,305.2 349.5,304.5 Z"/></g>
<g><path style="opacity:0.988" fill="#dcba88" d="M 138.5,302.5 C 138.821,305.577 137.821,307.91 135.5,309.5C 136.264,306.982 137.264,304.649 138.5,302.5 Z"/></g>
<g><path style="opacity:0.314" fill="#e9d7b8" d="M 170.5,309.5 C 180.315,313.851 190.649,315.517 201.5,314.5C 201.806,317.385 201.473,320.052 200.5,322.5C 200.5,320.167 200.5,317.833 200.5,315.5C 193.825,315.666 187.158,315.5 180.5,315C 176.111,314.733 172.778,312.9 170.5,309.5 Z"/></g>
<g><path style="opacity:0.098" fill="#ebdcbf" d="M 134.5,310.5 C 133.025,312.41 131.025,313.576 128.5,314C 121.221,315.247 113.888,315.747 106.5,315.5C 106.5,317.833 106.5,320.167 106.5,322.5C 137.833,322.5 169.167,322.5 200.5,322.5C 200.631,323.376 200.298,324.043 199.5,324.5C 168.37,323.739 137.036,323.239 105.5,323C 104.833,321 104.167,319 103.5,317C 103.957,316.586 104.291,316.086 104.5,315.5C 112.145,314.489 119.811,313.655 127.5,313C 129.854,312.153 132.188,311.32 134.5,310.5 Z"/></g>
<g><path style="opacity:0.296" fill="#f1e5d0" d="M 48.5,64.5 C 48.5,187.833 48.5,311.167 48.5,434.5C 181.167,434.5 313.833,434.5 446.5,434.5C 446.833,434.5 447.167,434.5 447.5,434.5C 447.5,434.833 447.5,435.167 447.5,435.5C 314.167,435.5 180.833,435.5 47.5,435.5C 47.1671,311.666 47.5005,187.999 48.5,64.5 Z"/></g>
</svg>
